<svg width="68" height="68" viewBox="0 0 68 68" fill="none" xmlns="http://www.w3.org/2000/svg">
<path d="M66.0078 18.6949C67.108 18.6949 68 17.3151 68 15.6133V3.08157C68 1.37972 67.108 0 66.0078 0H57.9062C56.806 0 55.9141 1.37972 55.9141 3.08157V6.16314H12.0859V3.08157C12.0859 1.37972 11.194 0 10.0938 0H1.99219C0.891969 0 0 1.37972 0 3.08157V15.6133C0 17.3151 0.891969 18.6949 1.99219 18.6949H3.98438V49.5106H1.99219C0.891969 49.5106 0 50.8903 0 52.5921V64.9184C0 66.6203 0.891969 68 1.99219 68H10.0938C11.194 68 12.0859 66.6203 12.0859 64.9184V61.8369C13.6386 61.8369 54.4444 61.8369 55.9141 61.8369V64.9184C55.9141 66.6203 56.806 68 57.9062 68H66.0078C67.108 68 68 66.6203 68 64.9184V52.5921C68 50.8903 67.108 49.5106 66.0078 49.5106H64.0156V18.6949H66.0078ZM3.98438 6.16314H8.10156V12.5317H3.98438V6.16314ZM8.10156 61.8369H3.98438V55.6737H8.10156V61.8369ZM22.0469 55.6737L30.0156 39.2387L37.9844 55.6737H22.0469ZM42.9648 55.6737L35.9707 41.2489L41.9688 27.3319L54.1838 55.6737H42.9648ZM56.6269 50.2315L43.6264 20.067C42.8403 18.2433 41.1003 18.2359 40.3111 20.067L33.4355 36.0201L31.6094 32.2538C30.8124 30.6101 29.2173 30.6134 28.4219 32.2538L17.0664 55.6737H12.0859V52.5921C12.0859 50.8903 11.194 49.5106 10.0938 49.5106H7.96875V18.6949H10.0938C11.194 18.6949 12.0859 17.3151 12.0859 15.6133V12.3263H55.9141V15.6133C55.9141 17.3151 56.806 18.6949 57.9062 18.6949H60.0312V49.5106H57.9062C57.419 49.5106 56.9731 49.782 56.6269 50.2315ZM64.0156 61.8369H59.8984V55.6737H64.0156V61.8369ZM59.8984 12.5317V6.16314H64.0156V12.5317H59.8984Z" fill="black"/>
</svg>
