<svg width="68" height="68" viewBox="0 0 68 68" fill="none" xmlns="http://www.w3.org/2000/svg">
<path d="M62.0234 0H5.97656C2.68109 0 0 2.68109 0 5.97656V62.0234C0 65.3189 2.68109 68 5.97656 68H62.0234C65.3189 68 68 65.3189 68 62.0234V5.97656C68 2.68109 65.3189 0 62.0234 0ZM3.98438 5.97656C3.98438 4.87807 4.87807 3.98438 5.97656 3.98438H15.9375V15.9375H3.98438V5.97656ZM64.0156 62.0234C64.0156 63.1219 63.1219 64.0156 62.0234 64.0156H5.97656C4.87807 64.0156 3.98438 63.1219 3.98438 62.0234V19.9219H64.0156V62.0234ZM64.0156 15.9375H19.9219V3.98438H62.0234C63.1219 3.98438 64.0156 4.87807 64.0156 5.97656V15.9375Z" fill="black"/>
</svg>
